<svg xmlns="http://www.w3.org/2000/svg" version="1.1" xmlns:xlink="http://www.w3.org/1999/xlink" xmlns:svgjs="http://svgjs.dev/svgjs" width="765" height="625" viewBox="0 0 300 300" class="svg-animations " style="background-color: rgb(0, 0, 0);"><svg viewBox="0 0 133.0120086669922 140.00595092773438" width="90" height="90" x="29.093379974365234" y="105" style="fill: rgb(255, 255, 255);"><svg width="133" height="135" viewBox="0 0 133 135" xmlns="http://www.w3.org/2000/svg">
	<g clip-path="url(#clip0)">
	<path d="M57.0528 0C25.5467 0 0 25.5427 0 57.0439C0 88.545 25.5467 114.088 57.0528 114.088C88.5589 114.088 114.106 88.545 114.106 57.0439C114.106 25.5427 88.5589 0 57.0528 0ZM63.0122 65.7737L56.4407 132.979C55.9441 135.404 52.6295 135.751 51.6362 133.487L30.2357 34.3995C29.3117 32.2864 31.4599 30.1386 33.5734 31.0624L87.3 54.5612C89.5636 55.5543 135.344 75.3464 132.919 75.843L64.9871 63.7991C63.9938 64.0069 63.22 64.7806 63.0122 65.7737Z"/>
	</g>
	</svg></svg><text fill="#ffffff" font-family="Verdana" font-size="32px" x="129.09337997436523" y="158.59804344177246"><tspan dy="0" x="129.09337997436523">educate</tspan></text><text fill="#ffffff" font-family="sans-serif" font-size="16px" x="195" y="173.38160514831543"><tspan dy="0" x="195"></tspan></text></svg>